HIERARCHY
ROOT Hips
{
	OFFSET -0.001795 -0.223333 0.028219
	CHANNELS 6 Xposition Yposition Zposition Zrotation Yrotation Xrotation 
	JOINT LeftUpLeg
	{
		OFFSET 0.069520 -0.091406 -0.006815
		CHANNELS 3 Zrotation Yrotation Xrotation
		JOINT LeftLeg
		{
			OFFSET 0.034277 -0.375199 -0.004496
			CHANNELS 3 Zrotation Yrotation Xrotation
			JOINT LeftFoot
			{
				OFFSET -0.013596 -0.397961 -0.043693
				CHANNELS 3 Zrotation Yrotation Xrotation
				JOINT LeftToe
				{
					OFFSET 0.026358 -0.055791 0.119288
					CHANNELS 3 Zrotation Yrotation Xrotation
					End Site
					{
						OFFSET 0.000000 0.000000 0.000000
					}
				}
			}
		}
	}
	JOINT RightUpLeg
	{
		OFFSET -0.067670 -0.090522 -0.004320
		CHANNELS 3 Zrotation Yrotation Xrotation
		JOINT RightLeg
		{
			OFFSET -0.038290 -0.382569 -0.008850
			CHANNELS 3 Zrotation Yrotation Xrotation
			JOINT RightFoot
			{
				OFFSET 0.015774 -0.398415 -0.042312
				CHANNELS 3 Zrotation Yrotation Xrotation
				JOINT RightToe
				{
					OFFSET -0.025372 -0.048144 0.123348
					CHANNELS 3 Zrotation Yrotation Xrotation
					End Site
					{
						OFFSET 0.000000 0.000000 0.000000
					}
				}
			}
		}
	}
	JOINT Spine
	{
		OFFSET -0.002533 0.108963 -0.026696
		CHANNELS 3 Zrotation Yrotation Xrotation
		JOINT Spine1
		{
			OFFSET 0.005487 0.135180 0.001092
			CHANNELS 3 Zrotation Yrotation Xrotation
			JOINT Spine2
			{
				OFFSET 0.001457 0.052922 0.025425
				CHANNELS 3 Zrotation Yrotation Xrotation
				JOINT Neck
				{
					OFFSET -0.002778 0.213870 -0.042857
					CHANNELS 3 Zrotation Yrotation Xrotation
					JOINT Head
					{
						OFFSET 0.005152 0.064970 0.051349
						CHANNELS 3 Zrotation Yrotation Xrotation
						End Site
						{
							OFFSET 0.000000 0.000000 0.000000
						}
					}
				}
				JOINT LeftShoulder
				{
					OFFSET 0.078845 0.121749 -0.034090
					CHANNELS 3 Zrotation Yrotation Xrotation
					JOINT LeftArm
					{
						OFFSET 0.090977 0.030469 -0.008868
						CHANNELS 3 Zrotation Yrotation Xrotation
						JOINT LeftForeArm
						{
							OFFSET 0.259612 -0.012772 -0.027456
							CHANNELS 3 Zrotation Yrotation Xrotation
							JOINT LeftHand
							{
								OFFSET 0.249234 0.008986 -0.001171
								CHANNELS 3 Zrotation Yrotation Xrotation
								End Site
								{
									OFFSET 0.000000 0.000000 0.000000
								}
							}
						}
					}
				}
				JOINT RightShoulder
				{
					OFFSET -0.081759 0.118833 -0.038615
					CHANNELS 3 Zrotation Yrotation Xrotation
					JOINT RightArm
					{
						OFFSET -0.096012 0.032551 -0.009143
						CHANNELS 3 Zrotation Yrotation Xrotation
						JOINT RightForeArm
						{
							OFFSET -0.253742 -0.013329 -0.021401
							CHANNELS 3 Zrotation Yrotation Xrotation
							JOINT RightHand
							{
								OFFSET -0.255298 0.007772 -0.005559
								CHANNELS 3 Zrotation Yrotation Xrotation
								End Site
								{
									OFFSET 0.000000 0.000000 0.000000
								}
							}
						}
					}
				}
			}
		}
	}
}
MOTION
Frames: 16
Frame Time: 0.050000
0.000000 0.968815 0.000000 -0.807943 -2.369450 0.777988 3.632877 0.082476 1.872286 -2.769731 0.352947 -3.710073 1.769029 7.280008 12.057540 0.000000 0.000000 0.000000 -1.273169 -0.015895 0.609154 2.053488 -0.219802 -0.601441 -1.676112 -8.757210 13.062810 0.000000 0.000000 0.000000 -1.702071 -0.054372 2.836848 3.933323 -0.579401 -20.923431 -0.819483 0.854018 26.793719 -0.354157 1.776666 -27.617064 0.000000 0.000000 0.000000 -29.701289 -2.063409 -0.297249 -48.044369 -7.221540 -5.156931 -11.108723 -26.046100 3.917328 0.000000 0.000000 0.000000 19.141434 7.449150 2.816361 54.908665 2.713258 -6.412962 15.562507 34.111557 6.172646 0.000000 0.000000 0.000000 
0.000151 0.967851 -0.000033 -0.881995 -2.578605 1.280786 3.907413 0.066239 1.758401 -2.805193 0.361466 -4.179651 2.100785 7.559955 11.048591 0.000000 0.000000 0.000000 -1.380616 0.046508 -0.047097 2.157954 -0.223509 -0.375723 -1.767984 -8.565307 11.639626 0.000000 0.000000 0.000000 -1.650512 -0.032010 2.012353 3.580223 -0.529596 -20.209813 -0.607742 1.018340 26.044624 -0.467965 1.882972 -28.292501 0.000000 0.000000 0.000000 -30.047445 -2.076211 -0.360877 -48.105014 -6.742675 -5.268710 -10.720359 -26.133213 3.834011 0.000000 0.000000 0.000000 19.242951 7.321443 2.739935 55.406783 1.160027 -7.083148 16.183801 35.139566 6.585955 0.000000 0.000000 0.000000 
0.000375 0.967414 -0.000151 -0.653691 -2.416188 1.326907 3.950875 0.000980 0.698545 -3.185154 0.376503 -2.060650 1.919806 7.070872 10.221396 0.000000 0.000000 0.000000 -1.500452 0.081184 -0.411375 1.965948 -0.192865 0.179996 -1.901318 -8.716528 11.346188 0.000000 0.000000 0.000000 -1.411855 -0.034946 1.866149 3.267945 -0.409480 -20.730572 -0.959576 0.792204 26.619633 -0.393679 1.792133 -27.810078 0.000000 0.000000 0.000000 -29.777455 -1.999416 -0.313188 -47.640949 -6.900860 -5.247741 -11.629199 -25.606995 3.962086 0.000000 0.000000 0.000000 19.663811 7.860303 3.007363 55.571216 0.378876 -7.489197 14.850471 34.697615 6.055347 0.000000 0.000000 0.000000 
0.000506 0.967663 -0.000339 -0.656793 -2.555138 1.475165 4.017272 -0.008669 0.551453 -3.438551 0.402063 -2.073493 2.097714 7.377202 10.303079 0.000000 0.000000 0.000000 -1.634860 0.112213 -0.724160 2.422597 -0.231413 0.527156 -2.282723 -9.488297 11.490616 0.000000 0.000000 0.000000 -1.701329 -0.015239 1.477275 3.733335 -0.531630 -20.813998 -1.089446 0.816216 26.658243 -0.040865 1.603393 -28.136172 0.000000 0.000000 0.000000 -30.802780 -1.668177 -0.591642 -47.142306 -6.668280 -5.287666 -11.480029 -25.333449 3.878002 0.000000 0.000000 0.000000 19.806003 8.559902 3.376469 55.447554 -0.005090 -7.636136 14.486001 34.805044 5.949056 0.000000 0.000000 0.000000 
0.000714 0.968184 -0.000516 -0.710369 -2.648117 1.167508 3.906452 -0.006808 0.492820 -3.351235 0.391725 -1.412687 2.416745 7.902147 10.275045 0.000000 0.000000 0.000000 -1.459128 0.100624 -0.651511 2.275340 -0.210036 0.816192 -2.317453 -9.566312 11.491112 0.000000 0.000000 0.000000 -1.501973 -0.032208 1.836593 3.595076 -0.503679 -20.724194 -1.160220 0.906748 26.600045 -0.056933 1.605670 -27.891997 0.000000 0.000000 0.000000 -30.721060 -1.785931 -0.523209 -47.050745 -6.445137 -5.350389 -11.975131 -25.642235 4.038050 0.000000 0.000000 0.000000 19.821276 8.330641 3.255344 55.784544 -0.212565 -7.774345 14.302993 34.504085 5.841896 0.000000 0.000000 0.000000 
0.000993 0.968499 -0.000679 -0.684791 -2.542074 1.099853 3.831413 -0.001086 0.578875 -3.369991 0.392990 -1.426067 2.583626 8.160555 10.126200 0.000000 0.000000 0.000000 -1.564670 0.102579 -0.648143 2.372152 -0.217756 0.976857 -2.462561 -9.862032 11.640021 0.000000 0.000000 0.000000 -1.731641 -0.026485 1.861286 3.742777 -0.521542 -21.045705 -1.119611 0.633845 26.984834 -0.294488 1.730682 -28.582097 0.000000 0.000000 0.000000 -30.890093 -1.608388 -0.548772 -47.184348 -6.314244 -5.473888 -12.129857 -25.746355 4.109964 0.000000 0.000000 0.000000 19.719870 8.579513 3.347118 55.933396 0.006795 -7.730219 13.585606 33.695898 5.460907 0.000000 0.000000 0.000000 
0.001276 0.968713 -0.000864 -0.715153 -2.769563 0.911681 3.771598 0.017144 0.806065 -3.246005 0.382126 -1.448904 2.757691 8.494501 10.400534 0.000000 0.000000 0.000000 -1.438251 0.104805 -0.713047 2.197919 -0.192732 1.217784 -2.378855 -9.770165 11.781740 0.000000 0.000000 0.000000 -1.696283 -0.030696 1.945309 3.692267 -0.523831 -20.884501 -1.041838 0.734913 26.976627 -0.191543 1.666446 -28.543942 0.000000 0.000000 0.000000 -31.151937 -1.538925 -0.591535 -47.260724 -6.048237 -5.588921 -12.108348 -25.486320 4.063229 0.000000 0.000000 0.000000 19.743902 8.692626 3.393438 55.939928 0.365317 -7.569933 13.137995 33.519099 5.292186 0.000000 0.000000 0.000000 
0.001565 0.968706 -0.001053 -0.682082 -2.953312 0.850094 3.698402 0.027412 0.921291 -3.216702 0.381002 -1.550974 2.832494 8.596370 10.365921 0.000000 0.000000 0.000000 -1.380673 0.114347 -0.838007 2.077402 -0.176277 1.319094 -2.405869 -9.833004 11.744042 0.000000 0.000000 0.000000 -1.745764 -0.030483 1.985635 3.681644 -0.515853 -21.030379 -1.014240 0.793698 27.150656 -0.583548 1.870217 -28.523703 0.000000 0.000000 0.000000 -30.943235 -1.447823 -0.600426 -47.389407 -5.829403 -5.707843 -12.395837 -25.466246 4.134137 0.000000 0.000000 0.000000 19.547564 8.660282 3.361662 56.072296 0.934946 -7.347391 12.632436 32.911723 5.037144 0.000000 0.000000 0.000000 
0.001820 0.968719 -0.001207 -0.656109 -3.253742 0.801411 3.562978 0.051541 1.225978 -3.118241 0.374666 -1.825165 2.940424 8.772626 10.471086 0.000000 0.000000 0.000000 -1.415512 0.112907 -0.806470 2.021491 -0.169425 1.285003 -2.356396 -9.821836 11.921612 0.000000 0.000000 0.000000 -1.712731 -0.031249 1.973998 3.654216 -0.521930 -20.918702 -0.920773 0.925025 27.045209 -0.771376 1.962075 -28.436708 0.000000 0.000000 0.000000 -30.886239 -1.534003 -0.514719 -47.507425 -5.512658 -5.834441 -12.544154 -25.130955 4.108218 0.000000 0.000000 0.000000 19.714450 8.952539 3.499798 55.835950 1.657505 -6.978043 11.600756 32.638769 4.685342 0.000000 0.000000 0.000000 
0.002078 0.968726 -0.001326 -0.580989 -3.609467 0.693976 3.340395 0.067456 1.353095 -2.970402 0.362777 -1.900892 2.966305 8.766486 10.379493 0.000000 0.000000 0.000000 -1.489695 0.111666 -0.765217 2.027652 -0.171451 1.153838 -2.365996 -9.943824 12.166625 0.000000 0.000000 0.000000 -1.649428 -0.031848 1.910627 3.526134 -0.496260 -20.902523 -0.884955 1.180774 27.161890 -1.327443 2.276901 -28.527273 0.000000 0.000000 0.000000 -30.861740 -1.553638 -0.505878 -47.236029 -5.172615 -5.935714 -13.063122 -25.064902 4.207558 0.000000 0.000000 0.000000 19.928903 9.259509 3.676272 55.711942 2.365558 -6.651927 10.745437 32.153466 4.365485 0.000000 0.000000 0.000000 
0.002398 0.968700 -0.001426 -0.390975 -3.665483 0.782922 3.198812 0.066881 1.311845 -3.055062 0.372909 -2.065253 3.069023 8.930095 10.365293 0.000000 0.000000 0.000000 -1.807316 0.130098 -0.883587 2.144806 -0.184556 1.110040 -2.424934 -10.090856 12.292151 0.000000 0.000000 0.000000 -1.674570 -0.025983 1.739616 3.491657 -0.494872 -20.779043 -0.835238 1.322238 27.088766 -1.607055 2.445735 -28.461680 0.000000 0.000000 0.000000 -30.558341 -1.698178 -0.435526 -47.283372 -4.962013 -5.992477 -13.468713 -24.812496 4.243664 0.000000 0.000000 0.000000 20.025099 9.592938 3.885974 55.461440 3.116826 -6.275647 9.860742 31.341949 3.994881 0.000000 0.000000 0.000000 
0.002755 0.968819 -0.001544 -0.188616 -3.702821 0.754334 2.957410 0.077556 1.400343 -2.920246 0.359934 -2.094866 3.042086 8.892022 10.421249 0.000000 0.000000 0.000000 -1.933888 0.138364 -0.946165 2.014754 -0.174000 0.962541 -2.462358 -10.239987 12.589506 0.000000 0.000000 0.000000 -1.626226 -0.026272 1.700341 3.359022 -0.450499 -20.930115 -0.775576 1.540977 27.162576 -2.151742 2.774432 -28.394342 0.000000 0.000000 0.000000 -30.388210 -1.684031 -0.512082 -47.245943 -4.509831 -6.134205 -14.020530 -24.700727 4.337328 0.000000 0.000000 0.000000 20.065996 9.893646 4.107587 55.430427 3.575243 -6.077287 9.183897 30.886113 3.756504 0.000000 0.000000 0.000000 
0.003110 0.969055 -0.001758 -0.012811 -3.768165 0.701097 2.760001 0.083655 1.425190 -2.935186 0.361905 -2.087241 3.065922 8.930929 10.446852 0.000000 0.000000 0.000000 -1.984358 0.147328 -1.042178 1.891316 -0.156575 1.129008 -2.535417 -10.383823 12.596314 0.000000 0.000000 0.000000 -1.642789 -0.029383 1.832383 3.354981 -0.446286 -21.004063 -0.711090 1.892667 27.046078 -2.333380 2.919956 -28.115511 0.000000 0.000000 0.000000 -30.145332 -1.667866 -0.638925 -47.276341 -4.195794 -6.206880 -14.536354 -24.689694 4.437733 0.000000 0.000000 0.000000 20.107896 10.149014 4.331154 55.044791 3.762276 -5.955427 9.236210 30.769339 3.758532 0.000000 0.000000 0.000000 
0.003357 0.969410 -0.002135 0.130661 -3.773239 0.710949 2.577020 0.073646 1.243013 -2.885427 0.355128 -1.874901 2.937497 8.704229 10.401102 0.000000 0.000000 0.000000 -2.074063 0.154937 -1.109773 1.837136 -0.151992 1.080208 -2.564534 -10.439242 12.601322 0.000000 0.000000 0.000000 -1.591419 -0.035843 2.029541 3.240432 -0.395871 -21.331514 -0.651532 2.289126 27.160768 -2.489904 3.067642 -27.903720 0.000000 0.000000 0.000000 -30.023550 -1.782588 -0.708436 -47.270536 -3.921512 -6.272735 -14.923436 -24.799892 4.530913 0.000000 0.000000 0.000000 20.132683 10.307956 4.533250 54.640315 3.894212 -5.886125 9.416657 30.688413 3.807163 0.000000 0.000000 0.000000 
0.003447 0.969556 -0.002775 0.312479 -3.778507 0.707978 2.435892 0.064129 1.081303 -2.867351 0.352318 -1.751551 2.875040 8.579411 10.312917 0.000000 0.000000 0.000000 -2.184503 0.164554 -1.198874 1.853286 -0.155859 0.992511 -2.626298 -10.561058 12.634893 0.000000 0.000000 0.000000 -1.685931 -0.035614 2.139644 3.227990 -0.389813 -21.376036 -0.625916 2.556794 27.122446 -2.542012 3.137216 -27.729501 0.000000 0.000000 0.000000 -29.843945 -1.665301 -0.884815 -47.215835 -3.602706 -6.350150 -15.396407 -25.296280 4.727762 0.000000 0.000000 0.000000 20.158909 10.448986 4.686688 54.215033 3.847462 -5.877822 9.997183 30.884538 3.995299 0.000000 0.000000 0.000000 
0.003391 0.969531 -0.003581 0.397870 -3.705165 0.806205 2.397826 0.044935 0.827100 -2.904895 0.355674 -1.750534 2.728129 8.359888 10.424657 0.000000 0.000000 0.000000 -2.211115 0.184753 -1.445028 1.876786 -0.160648 0.908929 -2.604627 -10.552315 12.791524 0.000000 0.000000 0.000000 -1.795497 -0.033483 2.219762 3.135744 -0.357537 -21.474324 -0.453827 2.666537 27.101202 -2.635153 3.202668 -27.142134 0.000000 0.000000 0.000000 -29.573744 -1.566556 -0.996744 -47.483848 -3.224708 -6.499234 -16.105872 -26.112098 5.061448 0.000000 0.000000 0.000000 19.923386 10.597964 4.802729 54.144721 3.873253 -5.861596 10.528974 31.210166 4.193911 0.000000 0.000000 0.000000 
